<svg width="24" height="24" viewBox="0 0 24 24" fill="none" xmlns="http://www.w3.org/2000/svg">
<g id="material-symbols:keyboard-arrow-down-rounded">
<path id="Vector" d="M12.0008 14.975C11.8674 14.975 11.7381 14.95 11.6128 14.9C11.4874 14.85 11.3834 14.7834 11.3008 14.7L6.70078 10.1C6.51745 9.91672 6.42578 9.68338 6.42578 9.40005C6.42578 9.11671 6.51745 8.88338 6.70078 8.70005C6.88411 8.51672 7.11745 8.42505 7.40078 8.42505C7.68411 8.42505 7.91745 8.51672 8.10078 8.70005L12.0008 12.6L15.9008 8.70005C16.0841 8.51672 16.3174 8.42505 16.6008 8.42505C16.8841 8.42505 17.1174 8.51672 17.3008 8.70005C17.4841 8.88338 17.5758 9.11671 17.5758 9.40005C17.5758 9.68338 17.4841 9.91672 17.3008 10.1L12.7008 14.7C12.6008 14.8 12.4924 14.871 12.3758 14.913C12.2591 14.955 12.1341 14.9757 12.0008 14.975Z" fill="#0076CE"/>
</g>
</svg>
